<svg version="1" xmlns="http://www.w3.org/2000/svg" width="400" height="400" viewBox="0 0 300.000000 300.000000"><path d="M139.7 88.1c-7.7 1.5-15.3 5.4-20.5 10.6-7 7.1-8.7 11.1-8.7 21.3 0 10 1.5 13.9 8.3 20.6 5.7 5.8 14.2 10 32 15.9 21.4 7.2 26.6 11.8 26 23.2-.5 7.7-2.5 10.9-9.4 14.3-4 2.1-6.6 2.6-14.9 2.8-9.6.3-10.2.2-16.5-3-7.5-3.8-11.8-9.1-12.7-15.6l-.6-4.2h-17l.6 4.5c2.1 15.1 15.4 27.6 33.5 31.4 13.2 2.8 31.1 0 41-6.2 14.6-9.4 17.7-31.9 6.1-45.1-5.7-6.5-14.2-11.1-30.6-16.6-23.6-7.9-29.3-12.3-29.3-22.4 0-6.9 3.7-12.8 10-15.9 6.1-3 17.9-3.5 25-1.2 8.5 2.8 15 11.2 15 19.4 0 2 .5 2.1 8.6 2.1h8.6l-.7-4.8c-3.2-22.5-26.9-36.2-53.8-31.1zM53.1 131.1l-22.4 23 22.9 23c22.2 22.2 23 22.9 26.9 22.9h4l-23-23-23-23 23-23 23-23-4.5.1h-4.5l-22.4 23zM238.5 131l23 23-23 23-23 23h4c3.9 0 4.7-.7 26.9-22.9l23-23-22.4-22.8c-22.2-22.6-22.4-22.8-26.9-23.1l-4.6-.3 23 23.1z"/></svg>